<svg width="77" height="22" viewBox="0 0 77 22" fill="none" xmlns="http://www.w3.org/2000/svg">
<path d="M12 2.852V5.79H4.434V10.444H10.232V13.33H4.434V21H0.794V2.852H12ZM16.4271 4.88C15.7858 4.88 15.2484 4.68067 14.8151 4.282C14.3991 3.866 14.1911 3.35467 14.1911 2.748C14.1911 2.14133 14.3991 1.63867 14.8151 1.24C15.2484 0.823999 15.7858 0.615999 16.4271 0.615999C17.0684 0.615999 17.5971 0.823999 18.0131 1.24C18.4464 1.63867 18.6631 2.14133 18.6631 2.748C18.6631 3.35467 18.4464 3.866 18.0131 4.282C17.5971 4.68067 17.0684 4.88 16.4271 4.88ZM18.2211 6.596V21H14.5811V6.596H18.2211ZM25.4574 1.76V21H21.8174V1.76H25.4574ZM33.2918 9.586V16.554C33.2918 17.0393 33.4044 17.3947 33.6298 17.62C33.8724 17.828 34.2711 17.932 34.8258 17.932H36.5158V21H34.2278C31.1598 21 29.6258 19.5093 29.6258 16.528V9.586H27.9098V6.596H29.6258V3.034H33.2918V6.596H36.5158V9.586H33.2918ZM52.5238 13.486C52.5238 14.006 52.4892 14.474 52.4198 14.89H41.8898C41.9765 15.93 42.3405 16.7447 42.9818 17.334C43.6232 17.9233 44.4118 18.218 45.3478 18.218C46.6998 18.218 47.6618 17.6373 48.2338 16.476H52.1598C51.7438 17.8627 50.9465 19.0067 49.7678 19.908C48.5892 20.792 47.1418 21.234 45.4258 21.234C44.0392 21.234 42.7912 20.9307 41.6818 20.324C40.5898 19.7 39.7318 18.8247 39.1078 17.698C38.5012 16.5713 38.1978 15.2713 38.1978 13.798C38.1978 12.3073 38.5012 10.9987 39.1078 9.872C39.7145 8.74533 40.5638 7.87867 41.6558 7.272C42.7478 6.66533 44.0045 6.362 45.4258 6.362C46.7952 6.362 48.0172 6.65667 49.0918 7.246C50.1838 7.83533 51.0245 8.676 51.6138 9.768C52.2205 10.8427 52.5238 12.082 52.5238 13.486ZM48.7538 12.446C48.7365 11.51 48.3985 10.7647 47.7398 10.21C47.0812 9.638 46.2752 9.352 45.3218 9.352C44.4205 9.352 43.6578 9.62933 43.0338 10.184C42.4272 10.7213 42.0545 11.4753 41.9158 12.446H48.7538ZM58.8207 8.832C59.2887 8.06933 59.8954 7.47133 60.6407 7.038C61.4034 6.60467 62.2701 6.388 63.2407 6.388V10.21H62.2787C61.1347 10.21 60.2681 10.4787 59.6787 11.016C59.1067 11.5533 58.8207 12.4893 58.8207 13.824V21H55.1807V6.596H58.8207V8.832ZM71.2044 21.234C70.0258 21.234 68.9684 21.026 68.0324 20.61C67.0964 20.1767 66.3511 19.596 65.7964 18.868C65.2591 18.14 64.9644 17.334 64.9124 16.45H68.5784C68.6478 17.0047 68.9164 17.464 69.3844 17.828C69.8698 18.192 70.4678 18.374 71.1784 18.374C71.8718 18.374 72.4091 18.2353 72.7904 17.958C73.1891 17.6807 73.3884 17.3253 73.3884 16.892C73.3884 16.424 73.1458 16.0773 72.6604 15.852C72.1924 15.6093 71.4384 15.3493 70.3984 15.072C69.3238 14.812 68.4398 14.5433 67.7464 14.266C67.0704 13.9887 66.4811 13.564 65.9784 12.992C65.4931 12.42 65.2504 11.6487 65.2504 10.678C65.2504 9.88067 65.4758 9.15267 65.9264 8.494C66.3944 7.83533 67.0531 7.31533 67.9024 6.934C68.7691 6.55267 69.7831 6.362 70.9444 6.362C72.6604 6.362 74.0298 6.79533 75.0524 7.662C76.0751 8.51133 76.6384 9.664 76.7424 11.12H73.2584C73.2064 10.548 72.9638 10.0973 72.5304 9.768C72.1144 9.42133 71.5511 9.248 70.8404 9.248C70.1818 9.248 69.6704 9.36933 69.3064 9.612C68.9598 9.85467 68.7864 10.1927 68.7864 10.626C68.7864 11.1113 69.0291 11.484 69.5144 11.744C69.9998 11.9867 70.7538 12.238 71.7764 12.498C72.8164 12.758 73.6744 13.0267 74.3504 13.304C75.0264 13.5813 75.6071 14.0147 76.0924 14.604C76.5951 15.176 76.8551 15.9387 76.8724 16.892C76.8724 17.724 76.6384 18.4693 76.1704 19.128C75.7198 19.7867 75.0611 20.3067 74.1944 20.688C73.3451 21.052 72.3484 21.234 71.2044 21.234Z" fill="white"/>
</svg>
