<svg width="17" height="21" viewBox="0 0 17 21" fill="none" xmlns="http://www.w3.org/2000/svg">
<path d="M8.5 21C9.66875 21 10.625 20.0308 10.625 18.8462H6.375C6.375 19.4174 6.59888 19.9652 6.9974 20.3692C7.39591 20.7731 7.93641 21 8.5 21ZM14.875 14.5385V9.15385C14.875 5.84769 13.1325 3.08 10.0938 2.34769V1.61538C10.0938 0.721539 9.38188 0 8.5 0C7.61812 0 6.90625 0.721539 6.90625 1.61538V2.34769C3.85688 3.08 2.125 5.83692 2.125 9.15385V14.5385L0 16.6923V17.7692H17V16.6923L14.875 14.5385Z" fill="white"/>
</svg>
