<svg width="20" height="19" viewBox="0 0 20 19" fill="none" xmlns="http://www.w3.org/2000/svg">
<path d="M19.5028 4.29051C19.1968 3.58754 18.7556 2.95052 18.2039 2.41511C17.6518 1.8781 17.0008 1.45134 16.2864 1.15805C15.5456 0.852714 14.7511 0.696426 13.9489 0.698258C12.8236 0.698258 11.7256 1.00403 10.7714 1.5816C10.5431 1.71976 10.3263 1.87152 10.1208 2.03686C9.91539 1.87152 9.69854 1.71976 9.47026 1.5816C8.51609 1.00403 7.41811 0.698258 6.29273 0.698258C5.48237 0.698258 4.69711 0.852276 3.95523 1.15805C3.23846 1.45249 2.59245 1.87604 2.03775 2.41511C1.48533 2.94992 1.04404 3.58709 0.738891 4.29051C0.421594 5.02209 0.259521 5.79898 0.259521 6.59852C0.259521 7.35275 0.414746 8.1387 0.722912 8.93824C0.980859 9.6064 1.35066 10.2995 1.82318 10.9994C2.57191 12.1069 3.60141 13.2621 4.87973 14.4331C6.99809 16.3741 9.0959 17.715 9.18493 17.7694L9.72593 18.1136C9.96561 18.2654 10.2738 18.2654 10.5135 18.1136L11.0545 17.7694C11.1435 17.7127 13.239 16.3741 15.3597 14.4331C16.638 13.2621 17.6675 12.1069 18.4162 10.9994C18.8887 10.2995 19.2608 9.6064 19.5165 8.93824C19.8246 8.1387 19.9799 7.35275 19.9799 6.59852C19.9822 5.79898 19.8201 5.02209 19.5028 4.29051Z" fill="#FF2525"/>
</svg>
